<svg xmlns="http://www.w3.org/2000/svg" width="800" height="800" preserveAspectRatio="xMidYMid" viewBox="0 -28.5 256 256"><path fill="#5865f2" d="M217 17a209 209 0 0 0-53-17 155 155 0 0 0-7 14c-19-3-39-3-58 0L92 0a208 208 0 0 0-53 17C6 67-3 116 1 165c22 17 44 27 65 33l14-23-22-10 5-5c42 20 88 20 130 0a132 132 0 0 0 5 5 136 136 0 0 1-22 10l14 23c21-6 43-16 65-33 5-56-9-105-38-148zM85 135c-12 0-23-12-23-26s11-26 23-26 24 12 23 26c1 14-10 26-23 26zm86 0c-13 0-23-12-23-26s10-26 23-26 23 12 23 26-11 26-23 26z"/></svg>