<svg xmlns="http://www.w3.org/2000/svg" width="800" height="800" viewBox="0 0 32 32" fill="none" xmlns:v="https://vecta.io/nano"><path d="M.691 21.955c-1.198.839-.976 2.284 1.757 3.187s5.908 1.09 8.703.587c-.08 0 .16 0 0 0v-2.852l-2.715.923c-1.038.335-2.076.419-3.114.168-.798-.252-.639-.755.319-1.174l5.509-2.013v-3.103l-7.665 2.768c-.958.335-1.916.839-2.794 1.51zM19.215 9.374v8.136c3.273 1.677 5.828 0 5.828-4.361 0-4.445-1.517-6.458-5.908-8.052-2.315-.839-4.711-1.594-7.106-2.097v24.239L17.618 29V8.619c0-.923 0-1.594.639-1.342.878.252.958 1.174.958 2.097zm10.38 10.652c-2.315-.839-4.791-1.174-7.186-.923-1.33.087-2.579.484-3.832.923v3.271l5.19-2.013c1.038-.335 2.076-.419 3.114-.168.798.252.639.755-.319 1.174l-7.984 3.103v3.187l11.018-4.277c.798-.335 1.517-.755 2.156-1.426.559-.839.319-2.013-2.156-2.852z" fill="#0070d1"/></svg>